<svg xmlns="http://www.w3.org/2000/svg" width="1180" height="640" viewBox="0 0 1180 640">
  <defs>
    <style>
      .box { fill:#eeeeee; stroke:#333333; stroke-width:2; }
      .rel { fill:#ffffff; stroke:#333333; stroke-width:2; }
      .line { stroke:#333333; stroke-width:2; fill:none; }
      .txt { font-family:"Microsoft YaHei", "SimSun", Arial, sans-serif; font-size:24px; fill:#222222; text-anchor:middle; dominant-baseline:middle; }
      .card { font-family:Arial, sans-serif; font-size:20px; fill:#222222; text-anchor:middle; dominant-baseline:middle; }
      .title { font-family:"Microsoft YaHei", "SimSun", Arial, sans-serif; font-size:26px; font-weight:600; fill:#222222; text-anchor:middle; }
    </style>
  </defs>

  <text x="590" y="34" class="title">白马程序员内部系统就业服务与权限通知局部数据模型</text>

  <rect x="70" y="74" width="180" height="72" class="box"/>
  <text x="160" y="110" class="txt">内部用户</text>

  <polygon points="160,186 270,246 160,306 50,246" class="rel"/>
  <text x="160" y="246" class="txt">拥有</text>

  <rect x="70" y="346" width="180" height="72" class="box"/>
  <text x="160" y="382" class="txt">角色</text>

  <polygon points="370,382 480,442 370,502 260,442" class="rel"/>
  <text x="370" y="442" class="txt">包含</text>

  <rect x="530" y="406" width="180" height="72" class="box"/>
  <text x="620" y="442" class="txt">权限</text>

  <rect x="530" y="74" width="180" height="72" class="box"/>
  <text x="620" y="110" class="txt">学员</text>

  <polygon points="620,186 730,246 620,306 510,246" class="rel"/>
  <text x="620" y="246" class="txt">接受</text>

  <rect x="530" y="346" width="180" height="72" class="box"/>
  <text x="620" y="382" class="txt">就业服务记录</text>

  <polygon points="830,246 940,306 830,366 720,306" class="rel"/>
  <text x="830" y="306" class="txt">关联</text>

  <rect x="980" y="270" width="180" height="72" class="box"/>
  <text x="1070" y="306" class="txt">企业/岗位</text>

  <polygon points="370,110 480,170 370,230 260,170" class="rel"/>
  <text x="370" y="170" class="txt">跟进</text>

  <polygon points="830,70 940,130 830,190 720,130" class="rel"/>
  <text x="830" y="130" class="txt">发布给</text>

  <rect x="980" y="94" width="180" height="72" class="box"/>
  <text x="1070" y="130" class="txt">通知公告</text>

  <rect x="980" y="466" width="180" height="72" class="box"/>
  <text x="1070" y="502" class="txt">操作日志</text>

  <polygon points="830,442 940,502 830,562 720,502" class="rel"/>
  <text x="830" y="502" class="txt">记录</text>

  <line x1="160" y1="146" x2="160" y2="186" class="line"/>
  <text x="174" y="168" class="card">1</text>
  <line x1="160" y1="306" x2="160" y2="346" class="line"/>
  <text x="174" y="326" class="card">m</text>

  <line x1="250" y1="382" x2="260" y2="442" class="line"/>
  <text x="270" y="410" class="card">1</text>
  <line x1="480" y1="442" x2="530" y2="442" class="line"/>
  <text x="505" y="428" class="card">m</text>

  <line x1="620" y1="146" x2="620" y2="186" class="line"/>
  <text x="638" y="168" class="card">1</text>
  <line x1="620" y1="306" x2="620" y2="346" class="line"/>
  <text x="638" y="326" class="card">m</text>

  <line x1="710" y1="382" x2="720" y2="306" class="line"/>
  <text x="730" y="346" class="card">m</text>
  <line x1="940" y1="306" x2="980" y2="306" class="line"/>
  <text x="960" y="292" class="card">1</text>

  <line x1="250" y1="110" x2="260" y2="170" class="line"/>
  <text x="270" y="140" class="card">1</text>
  <line x1="480" y1="170" x2="530" y2="110" class="line"/>
  <text x="505" y="138" class="card">m</text>

  <line x1="710" y1="110" x2="720" y2="130" class="line"/>
  <text x="728" y="110" class="card">m</text>
  <line x1="940" y1="130" x2="980" y2="130" class="line"/>
  <text x="960" y="116" class="card">m</text>

  <line x1="250" y1="110" x2="720" y2="502" class="line"/>
  <text x="474" y="292" class="card">1</text>
  <line x1="940" y1="502" x2="980" y2="502" class="line"/>
  <text x="960" y="488" class="card">m</text>
</svg>
